<?xml version="1.0" encoding="UTF-8"?><svg id="Camada_1" xmlns="http://www.w3.org/2000/svg" viewBox="0 0 1710.17 546.06"><defs><style>.cls-1,.cls-2{fill:#ffffff;}.cls-2{stroke:#ffffff;stroke-miterlimit:10;stroke-width:3px;}</style></defs><g><path class="cls-1" d="M778.56,159.46v141.74h-17.72V159.46h-186.03v141.74h-17.72V0h17.72V141.74h186.03V0h17.72V159.46Z"/><path class="cls-1" d="M883.08,230.33h-5.76l-28.79,65.55-2.21,5.31h-19.49l5.76-12.4L956.6,5.32,958.82,0h11.52l2.21,5.31,124.02,283.47,5.76,12.4h-19.49l-2.21-5.31-28.79-65.55h-168.75Zm161.22-17.72L964.57,31.01l-79.72,181.6h159.45Z"/><path class="cls-1" d="M1168.31,292.33v8.86h-17.72V0h13.29l2.66,3.54,187.36,261.32,.44-256.01V0h17.72V8.86l-.44,283.47v8.86h-13.29l-2.66-3.54L1168.31,36.33V292.33Z"/><path class="cls-1" d="M1576.68,159.46v-17.72h131.99v8.86c0,84.16-60.24,150.59-132.43,150.59s-133.32-66.44-133.32-150.59S1503.15,0,1576.23,0c50.05-.44,96.56,31.01,113.83,64.67l-15.95,7.97c-14.61-29.23-54.92-55.37-97.89-54.92-64.23,0-115.6,60.24-115.6,132.88s51.38,132.88,115.6,132.88,114.72-60.24,114.72-124.02h-114.27Z"/></g><g><path class="cls-2" d="M557.09,371.82v-5.23h10.47v167.51h94.22v10.47h-104.69v-172.74Z"/><path class="cls-2" d="M813.58,366.59h5.23v10.47h-115.16v73.28h84.28v10.47h-84.28v73.28h115.16v10.47h-125.63v-177.98h120.39Z"/><path class="cls-2" d="M870.11,502.69h-3.4l-17.01,38.74-1.31,3.14h-11.52l3.4-7.33,73.28-167.51,1.31-3.14h6.81l1.31,3.14,73.28,167.51,3.4,7.33h-11.52l-1.31-3.14-17.01-38.74h-99.72Zm95.27-10.47l-47.11-107.31-47.11,107.31h94.22Z"/><path class="cls-2" d="M1038.66,539.33v5.23h-10.47v-177.98h7.85l1.57,2.09,110.71,154.42,.26-151.28v-5.23h10.47v5.23l-.26,167.51v5.23h-7.85l-1.57-2.09-110.71-154.42v151.28Z"/><path class="cls-2" d="M1216.63,544.56h-5.23v-177.98h68.57c40.83,3.67,71.45,43.19,67.53,88.99,3.93,45.8-26.7,85.32-67.53,88.99h-63.34Zm5.23-10.47h57.32c35.33-3.14,61.24-38.47,57.84-78.52v-.52c3.4-39.52-22.51-74.86-57.84-78h-57.32v157.04Z"/><path class="cls-2" d="M1480.97,459.24c13.35,11.52,24.08,28.79,39,78.52l2.09,6.8h-10.99l-1.05-3.66c-17.27-56.53-27.74-68.31-43.71-80.09h-66.48v83.75h-10.47v-5.23l.26-167.24v-5.23h5.23l72.76-.26c29.31,0,52.61,21.46,52.61,47.37,0,21.72-16.49,40.04-39.26,45.28Zm-30.1-8.9h17.01c22.77,0,41.88-15.97,41.88-36.38s-19.11-36.9-42.14-36.9h-67.79v73.55c17.01,0,34.02-.26,51.04-.26Z"/><path class="cls-2" d="M1551.63,455.57c0-49.73,35.59-88.99,78.52-88.99s78.52,39.26,78.52,88.99-35.59,88.99-78.52,88.99-78.52-39.26-78.52-88.99Zm10.47,0c0,42.92,30.36,78.52,68.05,78.52s68.05-35.59,68.05-78.52-30.36-78.52-68.05-78.52-68.05,35.6-68.05,78.52Z"/></g><g><polygon class="cls-1" points="0 477.21 170.23 477.21 95.88 245.34 0 315.89 0 477.21"/><polygon class="cls-1" points="178.6 477.21 409.87 477.21 409.87 371.53 144.71 371.53 178.6 477.21"/><polygon class="cls-1" points="142.16 363.56 270.68 363.56 289.41 306.05 104.17 245.09 142.16 363.56"/><polygon class="cls-1" points="0 306 197.73 160.51 70.73 67.35 0 67.35 0 306"/><polygon class="cls-1" points="106.56 237.48 291.86 298.46 309.99 242.73 204.47 165.44 106.56 237.48"/><polygon class="cls-1" points="84.21 67.35 312.58 234.76 367.11 67.35 84.21 67.35"/><polygon class="cls-1" points="375.49 67.35 409.87 67.35 409.87 363.56 279.07 363.56 375.49 67.35"/></g></svg>