<?xml version="1.0" encoding="UTF-8"?><svg id="Camada_1" xmlns="http://www.w3.org/2000/svg" viewBox="0 0 409.87 409.87"><defs><style>.cls-1{fill:#ffffff;}</style></defs><polygon class="cls-1" points="0 409.87 170.23 409.87 95.88 177.99 0 248.54 0 409.87"/><polygon class="cls-1" points="178.6 409.87 409.87 409.87 409.87 304.18 144.71 304.18 178.6 409.87"/><polygon class="cls-1" points="142.16 296.21 270.68 296.21 289.41 238.7 104.17 177.74 142.16 296.21"/><polygon class="cls-1" points="0 238.65 197.73 93.16 70.73 0 0 0 0 238.65"/><polygon class="cls-1" points="106.56 170.13 291.86 231.12 309.99 175.38 204.47 98.1 106.56 170.13"/><polygon class="cls-1" points="84.21 0 312.58 167.41 367.11 0 84.21 0"/><polygon class="cls-1" points="375.49 0 409.87 0 409.87 296.21 279.07 296.21 375.49 0"/></svg>